<svg width="25" height="21" fill="none" xmlns="http://www.w3.org/2000/svg"><path d="M23.271 14.888H7.77l.778-1.586 12.933-.023a.904.904 0 00.89-.745l1.79-10.024a.904.904 0 00-.887-1.064L6.82 1.39 6.682.73A.925.925 0 005.78 0H1.757a.919.919 0 000 1.838h3.278l.614 2.92 1.513 7.323-1.948 3.179a.91.91 0 00-.078.958c.156.31.471.505.82.505h1.635A2.673 2.673 0 009.727 21a2.673 2.673 0 002.134-4.277h4.194A2.673 2.673 0 0018.19 21a2.673 2.673 0 002.134-4.277h2.95a.92.92 0 00.919-.919.922.922 0 00-.922-.916zM7.204 3.202l14.99.05-1.469 8.22-11.774.021-1.747-8.291zm2.523 15.95a.824.824 0 01-.823-.823c0-.453.37-.823.823-.823a.824.824 0 01.581 1.405.822.822 0 01-.581.24zm8.463 0a.824.824 0 01-.823-.823c0-.453.37-.823.823-.823a.824.824 0 01.581 1.405.822.822 0 01-.581.24z" fill="#FDEB6F"/></svg>