<svg width="20" height="19" fill="none" xmlns="http://www.w3.org/2000/svg"><path d="M1.181 2.97L3.677.476a1.612 1.612 0 012.288 0l2.688 2.683a1.618 1.618 0 010 2.293l-2.1 2.102a9.503 9.503 0 002.025 2.983 9.522 9.522 0 002.981 2.03l2.1-2.102a1.613 1.613 0 012.288 0l2.69 2.683a1.618 1.618 0 010 2.293l-2.493 2.493a2.807 2.807 0 01-2.424.78c-3.103-.51-6.183-2.162-8.67-4.647C2.567 11.578.917 8.498.4 5.393a2.794 2.794 0 01.781-2.423zm.881 2.144c.458 2.763 1.943 5.52 4.182 7.758 2.238 2.238 4.992 3.724 7.755 4.181.347.059.703-.059.957-.31l2.449-2.448-2.597-2.6L12 14.508l-.021.02-.506-.187a11.28 11.28 0 01-6.696-6.698l-.188-.506 2.831-2.83L4.823 1.71 2.374 4.158a1.1 1.1 0 00-.312.956z" fill="#0091A5"/></svg>