<svg width="18" height="18" fill="none" xmlns="http://www.w3.org/2000/svg"><path d="M17.944 1.147L16.853.057a.194.194 0 00-.274 0l-3.81 3.812-1.323-1.323a.192.192 0 00-.327.113l-.568 4.575c-.015.126.09.23.215.215l4.577-.568a.193.193 0 00.114-.327l-1.324-1.323 3.813-3.813a.194.194 0 00-.002-.27zm-10.71 9.404l-4.577.568a.193.193 0 00-.114.327l1.323 1.323-3.81 3.81a.194.194 0 000 .274l1.091 1.09a.194.194 0 00.274 0l3.812-3.812 1.324 1.323a.193.193 0 00.326-.113l.566-4.575a.191.191 0 00-.215-.215z" fill="#7A7A7A"/></svg>