<svg width="18" height="18" fill="none" xmlns="http://www.w3.org/2000/svg"><path d="M7.893 11.198l-1.091-1.091a.194.194 0 00-.273 0l-3.81 3.813-1.324-1.324a.193.193 0 00-.326.114L.5 17.285c-.015.125.09.23.215.215l4.577-.569a.193.193 0 00.114-.326l-1.323-1.323 3.812-3.813a.194.194 0 00-.002-.271zM17.234.5l-4.577.569a.193.193 0 00-.114.326l1.324 1.323-3.81 3.81a.194.194 0 000 .274l1.09 1.091a.194.194 0 00.274 0l3.812-3.813 1.324 1.324a.192.192 0 00.326-.114L17.45.715A.191.191 0 0017.234.5z" fill="#7A7A7A"/></svg>