<svg width="20" height="21" fill="none" xmlns="http://www.w3.org/2000/svg"><path d="M19.061 17.138a9.867 9.867 0 00-2.126-3.153 9.908 9.908 0 00-3.153-2.126c-.01-.006-.021-.008-.032-.014A6.542 6.542 0 009.92 0a6.542 6.542 0 00-3.831 11.848l-.032.013a9.824 9.824 0 00-3.152 2.127A9.909 9.909 0 00.778 17.14 9.806 9.806 0 000 20.784.212.212 0 00.211 21h1.583a.21.21 0 00.211-.206 7.865 7.865 0 012.316-5.39 7.862 7.862 0 015.599-2.319c2.116 0 4.102.823 5.598 2.32a7.865 7.865 0 012.316 5.39.209.209 0 00.211.205h1.583a.21.21 0 00.197-.134.212.212 0 00.014-.082 9.832 9.832 0 00-.778-3.646zM9.92 11.08a4.505 4.505 0 01-3.208-1.33 4.508 4.508 0 01-1.33-3.207c0-1.211.472-2.35 1.33-3.208a4.508 4.508 0 013.208-1.33c1.21 0 2.35.472 3.208 1.33a4.508 4.508 0 011.33 3.208c0 1.21-.473 2.35-1.33 3.208a4.508 4.508 0 01-3.208 1.33z" fill="#FDEB6F"/></svg>