<?xml version="1.0" standalone="no"?>
<!DOCTYPE svg PUBLIC "-//W3C//DTD SVG 20010904//EN"
 "http://www.w3.org/TR/2001/REC-SVG-20010904/DTD/svg10.dtd">
<svg version="1.0" xmlns="http://www.w3.org/2000/svg"
 width="800.000000pt" height="800.000000pt" viewBox="0 0 800.000000 800.000000"
 preserveAspectRatio="xMidYMid meet">
<metadata>
Created by potrace 1.14, written by Peter Selinger 2001-2017
</metadata>
<g transform="translate(0.000000,800.000000) scale(0.100000,-0.100000)"
fill="#000000" stroke="none">
<path d="M0 4000 l0 -4000 4000 0 4000 0 0 4000 0 4000 -4000 0 -4000 0 0
-4000z m4480 2155 l0 -45 -122 0 c-139 0 -184 -9 -228 -47 -45 -37 -60 -74
-60 -145 0 -56 53 -221 502 -1570 277 -829 506 -1502 509 -1495 17 29 993
2839 1010 2906 22 87 25 198 5 244 -17 41 -62 81 -105 96 -19 6 -87 11 -152
11 l-119 0 0 45 0 45 500 0 500 0 0 -45 0 -45 -82 0 c-104 0 -145 -18 -215
-92 -64 -69 -116 -172 -181 -358 -27 -80 -280 -803 -561 -1607 -281 -805 -511
-1471 -511 -1481 0 -35 109 -343 147 -414 48 -91 161 -209 229 -240 34 -15 76
-23 137 -26 l88 -4 -3 -42 -3 -41 -1272 -3 -1273 -2 0 44 0 43 133 5 c112 4
141 8 180 27 68 33 92 77 92 171 0 71 -9 100 -164 545 -90 259 -166 476 -168
483 -4 9 -126 12 -564 12 -307 0 -559 -1 -559 -3 0 -2 -70 -203 -155 -448
-191 -544 -204 -596 -174 -676 30 -81 85 -104 262 -111 l137 -5 0 -43 0 -44
-500 0 -500 0 0 44 0 44 88 4 c106 5 150 25 216 99 25 28 67 93 91 143 27 54
234 632 510 1426 256 734 473 1355 481 1380 l16 45 -136 390 c-160 459 -211
572 -293 654 -67 66 -107 81 -212 81 l-71 0 0 45 0 45 1275 0 1275 0 0 -45z"/>
<path d="M2481 4020 c-134 -386 -241 -703 -239 -706 3 -2 225 -3 495 -2 l490
3 -58 165 c-335 957 -431 1226 -437 1232 -5 5 -118 -307 -251 -692z"/>
</g>
</svg>
