<svg width="390" height="100" fill="none" xmlns="http://www.w3.org/2000/svg"><path d="M286.603 75.541h-1.677c-.839 0-1.51.504-1.845 1.174l-3.186 7.882-4.528-7.882c-.336-.67-1.174-1.174-1.845-1.174h-1.845c-1.006 0-1.677.671-1.677 1.677 0 .336.168.671.335 1.007l7.212 11.907-.168.335c-.168.168-.335.503-.839.503h-1.341c-.839 0-1.342.336-1.677 1.174l-.503 1.342c-.168.335-.168.503-.168.838 0 .671.335 1.174 1.006 1.51a6.732 6.732 0 002.516.503c2.851 0 4.696-1.51 6.205-5.031l5.87-13.249c.167-.335.167-.503.167-.839-.167-1.006-1.006-1.677-2.012-1.677zm27.502 15.597h-.838V77.386a1.861 1.861 0 00-1.845-1.844h-10.23a1.861 1.861 0 00-1.845 1.844l-.167 2.684c-.336 5.87-1.845 9.894-2.684 11.068h-.503a1.862 1.862 0 00-1.845 1.845v5.03c0 1.007.839 1.846 1.845 1.846h1.677a1.862 1.862 0 001.845-1.845v-1.677h11.236v1.677c0 1.006.839 1.845 1.845 1.845h1.677a1.862 1.862 0 001.845-1.845v-5.031c-.168-1.174-1.006-1.845-2.013-1.845zm-11.404 0c.671-1.51 1.51-4.696 1.845-7.379l.336-2.85h3.018v10.229h-5.199zm59.033-15.597h-2.18c-.671 0-1.342.336-1.845 1.007l-4.863 6.875-5.031-7.043c-.503-.671-1.174-1.006-1.845-1.006h-2.348a1.862 1.862 0 00-1.845 1.844v17.106c0 1.006.839 1.845 1.845 1.845h1.845a1.861 1.861 0 001.845-1.845v-9.727l3.186 4.36c1.174 1.51 3.186 1.51 4.193 0l3.186-4.527v9.726c0 1.007.839 1.845 1.845 1.845h1.844a1.86 1.86 0 001.845-1.845v-16.77c0-1.006-.671-1.845-1.677-1.845zm24.316 18.448l-7.043-17.274c-.336-.67-1.006-1.174-1.845-1.174h-2.012c-.839 0-1.51.504-1.845 1.174l-7.212 17.274c0 .168-.167.503-.167.67 0 1.007.838 1.678 1.677 1.678h1.677c.838 0 1.509-.503 1.845-1.174l1.174-2.851h7.211l1.174 2.85c.335.84 1.006 1.175 1.845 1.175h2.012c1.006 0 1.677-.839 1.677-1.677 0-.336 0-.503-.168-.671zm-8.553-7.044h-3.018l1.509-3.69 1.509 3.69zm-49.64-11.404a10.879 10.879 0 00-10.901 10.901c0 6.038 4.863 11.069 10.901 11.069 6.037 0 11.068-4.864 11.068-11.069 0-6.037-5.031-10.9-11.068-10.9zm0 16.1c-2.851 0-5.199-2.348-5.199-5.199 0-2.85 2.348-5.199 5.199-5.199s5.199 2.348 5.199 5.2c0 2.85-2.348 5.198-5.199 5.198zM48.294 38.143c1.677 3.019 7.547 4.696 10.566 4.193 3.521-.335 7.043-2.516 13.08-5.534 4.696-2.348 9.727-2.516 12.075-1.677 3.354 1.173 5.367-.504 7.38-7.715.335-1.006.502-2.18.335-3.69-.168-1.676-.671-2.515-2.18-3.353-3.858-2.18-8.386-2.18-12.578-4.864-3.858-2.348-6.038-5.031-9.895-6.037h-.168c4.528-3.69 3.522-4.696-.335-2.516-.839.503-2.18 1.342-3.354 1.51a80.23 80.23 0 00-2.684-.504c.839-2.347 3.355-3.69 5.2-5.198C67.076 1.75 68.25-.43 66.908.074c-2.515 1.007-8.05 2.851-10.23 4.193-2.683 1.51-4.025 3.522-4.863 7.043-3.354-2.18-6.373-3.689-10.23-4.695-4.528-1.174-5.534-1.677-5.367 2.012.168 4.864 2.516 8.05 6.54 10.566-15.428 4.695-25.993 19.118-25.993 35.385 0 20.46 16.435 36.895 36.56 36.895 21.968 0 38.236-16.1 37.397-38.069v-.335h-.67c-1.845 9.895-7.38 18.112-13.92 21.97-13.08 7.546-29.18 3.521-36.727-9.225-1.845-3.018-4.025-5.03-6.373-5.366-1.677-.336-2.683-.336-3.354-2.348-1.006-2.85-.839-6.54 2.515-7.044 6.373-1.173 4.696-2.85 10.063-6.875-1.677-3.354-3.857-1.007-8.05-8.721 4.528.67 6.037.335 10.062 2.683l-1.845-3.522c3.02 1.342 4.696 1.174 5.87 3.522z" fill="#E30613"/><path d="M47.45 44.18c5.199 10.902 13.08 10.23 20.46 5.032 4.863-3.354 5.534-7.882 12.913-8.05-.503-.503-.503-1.174.839-1.006 1.006 0 1.174.168 1.509 1.006 1.174-.168 1.006.67.838 1.51.671.503.671 1.509 0 2.18.839.335 1.342 1.006 1.845 2.012l-2.348-.168c0 1.007.168 2.18 0 3.02-.167 1.173-1.006 1.34-1.509 1.005-.67-.503-1.342-1.006-1.006 0 .838 2.18 1.845 9.056-2.348 14.087-7.547 9.224-21.802 10.734-30.858.504-4.025-4.696-4.528-8.386-4.863-13.417 1.006 1.677 1.677 2.851 2.683 3.187-.838-2.684-1.006-5.367-.503-8.218.67 1.845 1.677 3.354 2.516 4.528-.671-2.348-.839-4.528-.168-7.211z" fill="#52AE32"/><path d="M96.754 51.224c0-.67-.167-1.341-.167-1.845-.168-.503-.168-1.173-.336-1.677-.168-.503-.168-1.006-.168-1.341-.167-.336-.167-.839-.335-1.174a52.228 52.228 0 01-.503-2.18l-.336.167.504 2.013c0 .335.167.67.167 1.174 0 .503.168.838.168 1.341 0 .504.168 1.007.168 1.677 0 .504.168 1.174.168 1.845s.167 1.342.167 2.013v2.18c0 .838-.168 1.51-.168 2.348 0 .838-.167 1.677-.335 2.515-.503 3.522-1.51 7.547-3.354 11.572l-1.51 3.019c-.502 1.006-1.173 2.012-1.844 3.018-1.342 2.013-2.851 3.857-4.528 5.702-3.354 3.69-7.715 6.876-12.578 9.224-4.863 2.348-10.398 3.857-16.1 4.025-5.702.335-11.404-.671-16.77-2.851-5.367-2.18-10.23-5.367-14.087-9.392-3.858-4.024-7.044-8.72-9.056-13.584-2.013-4.863-3.187-10.062-3.354-14.925-.168-4.864.335-9.56 1.509-13.752l.503-1.51v-.335l.168-.335c.168-.336.168-.503.335-.839.336-1.006.671-2.012 1.174-2.85.168-.504.335-.84.67-1.343.169-.503.336-.838.672-1.341.503-.839.838-1.677 1.341-2.348a15.31 15.31 0 001.342-2.18c.503-.67 1.006-1.342 1.342-2.013.503-.67.838-1.174 1.341-1.677.503-.503.839-1.006 1.342-1.509.838-1.006 1.677-1.677 2.348-2.515l1.006-1.007c.335-.335.67-.503.838-.67a46.478 46.478 0 011.678-1.342l-.168-.336s-.67.336-1.845 1.174c-.335.168-.67.336-1.006.671-.335.168-.67.503-1.174.839-.839.67-1.845 1.341-2.683 2.18-.503.503-1.006.838-1.51 1.341-.503.504-1.006 1.007-1.509 1.678-.503.67-1.174 1.173-1.677 1.844-.503.671-1.174 1.342-1.677 2.18-.503.839-1.006 1.51-1.51 2.348-.335.336-.502.839-.838 1.342-.67 1.006-.838 1.51-1.174 2.012-.335.671-.67 1.342-1.006 2.18v-.503c0-.67 0-1.174-.168-1.844 0-.671-.168-1.342-.168-1.845-.167-.67-.167-1.342-.335-1.845 0-.168 0-.335-.168-.503 6.038-8.05 2.851-15.261-4.192-18.615-4.36 7.043-4.36 13.08 3.521 18.615v.503c0 .671 0 1.342.168 1.845v3.689c0 .671 0 1.174-.168 1.677 0 .504-.167 1.007-.167 1.51 0 .503-.168.838-.168 1.341v.336c-.67 2.012-1.174 4.192-1.677 6.54a57.697 57.697 0 00-.503 7.715c0 5.366 1.174 11.068 3.522 16.435 2.348 5.366 5.702 10.397 10.23 14.758 4.36 4.192 9.894 7.546 15.596 9.559 5.87 2.18 12.075 3.019 18.112 2.516 6.038-.336 11.907-2.18 16.938-4.696 5.032-2.683 9.56-6.038 12.914-10.063a70.774 70.774 0 004.528-6.037c.67-1.006 1.174-2.18 1.845-3.186.503-1.006 1.006-2.18 1.509-3.187 1.845-4.192 2.683-8.217 3.186-11.907.336-3.69.336-6.876 0-9.559z" fill="#52AE32"/><path d="M22.8 11.981c-5.534 2.516-8.217 6.373-5.367 13.249 7.212-2.348 8.218-8.218 5.367-13.249zM1.835 27.578C-1.35 34.286-.848 39.82 7.034 43.845c4.863-7.714 1.342-13.92-5.199-16.267zm28.176-8.721c0 .168-.168.168-.168.168-.167 0-.167-.168-.167-.168 0-.168.168-.168.168-.168s.167 0 .167.168zm149.93 19.453c0 13.753-10.062 21.635-24.82 21.802v1.677c0 3.187-2.683 5.87-6.373 5.87-3.689 0-6.373-2.683-6.373-5.87v-1.677c-14.758-.167-24.652-7.882-24.652-21.801 0-13.752 10.062-21.299 24.652-21.802 0-3.354 2.684-5.87 6.373-5.87 3.69 0 6.373 2.684 6.373 5.87 14.422.336 24.82 8.218 24.82 21.802zm-37.566-10.06c-8.05.167-11.236 4.695-11.236 10.062 0 6.373 3.354 9.895 11.236 10.062V28.25zm12.746 20.124c8.385-.167 11.404-3.522 11.404-10.062 0-5.199-2.851-9.895-11.404-10.062v20.124zm59.032 6.54c3.186 0 5.869 2.683 5.869 5.87 0 3.186-2.683 5.87-5.869 5.87h-21.802c-3.186 0-5.87-2.684-5.87-5.87V17.18c0-3.186 2.684-5.87 5.87-5.87h20.963c3.187 0 5.87 2.684 5.87 5.87 0 3.187-2.683 5.87-5.87 5.87h-14.255v9.727h11.907c3.187 0 5.87 2.683 5.87 5.87 0 3.186-2.683 5.87-5.87 5.87h-11.907v10.061h15.094v.336zm30.684-43.771c16.938 0 22.473 8.888 22.473 18.447 0 9.895-7.715 18.616-20.628 18.616-1.174 0-4.193 0-6.205-.168V61.79c0 3.186-2.683 5.87-6.373 5.87-3.689 0-6.373-2.684-6.373-5.87V17.347c0-3.354 2.684-5.87 5.87-6.037 4.025 0 8.553-.168 11.236-.168zm-4.36 24.82c1.845.168 4.025.335 5.87.335 3.354 0 7.379-1.509 7.379-6.875 0-4.864-3.187-6.373-7.715-6.373-1.677 0-3.018 0-5.534.168v12.745zm46.119-4.193v30.02c0 3.186-2.683 5.87-6.373 5.87-3.689 0-6.372-2.684-6.372-5.87V17.682c0-4.025 2.851-7.211 7.379-7.211s6.205 1.845 9.726 6.708l12.746 17.441 11.907-17.441c2.683-3.857 4.696-6.876 9.056-6.876 4.36 0 7.044 2.851 7.044 6.876v44.274c0 3.186-2.684 5.87-6.373 5.87-3.69 0-6.373-2.684-6.373-5.87V31.267L307.056 47.87c-1.174 1.677-2.851 2.516-4.36 2.516-1.677 0-3.354-.839-4.528-2.516l-11.572-16.1zm87.374 23.48h-21.969l-3.354 8.385c-1.006 2.347-3.019 4.024-5.87 4.024-3.186 0-5.534-2.683-5.534-5.534 0-.838 0-1.51.336-2.18l17.944-43.603c1.509-3.69 4.025-5.87 7.882-5.87 4.025 0 6.037 2.013 7.714 5.87l17.777 42.765c.336.838.503 1.509.503 2.347 0 3.187-2.683 6.038-6.205 6.038-2.851 0-5.031-1.677-5.869-4.025l-3.355-8.218zm-10.9-27.672l-6.205 15.764h12.41l-6.205-15.764z" fill="#52AE32"/></svg>