<svg width="50" height="40" fill="none" xmlns="http://www.w3.org/2000/svg"><path fill-rule="evenodd" clip-rule="evenodd" d="M34.868 30.65l8.999-25.8c.632-1.827.878-4.042-1.441-4.042h-1.688V0h9.104v.808h-1.054c-1.969 0-2.847 2.707-3.34 4.183L33.216 40H22.882L10.476 4.534C9.948 3.058 9.034.808 7.31.808H6.257V0h23.198v.808h-1.687c-2.214 0-2.285 1.547-1.898 2.777 0 .035.035.106.035.106l2.32 7.03 6.643 19.93z" fill="url(#paint0_linear_115:6)"/><path fill-rule="evenodd" clip-rule="evenodd" d="M9.033 26.292h9.104l-4.57-12.865h-.07L9.033 26.292zm9.596 1.617H8.471l-2.707 7.768c-.421 1.23-1.124 3.48 1.653 3.48h1.687v.808H0v-.809h1.054c1.758 0 2.637-2.214 3.164-3.655L15.325 3.656h10.58l10.65 31.95c.422 1.406 1.898 3.55 3.55 3.55h1.055v.809h-23.2v-.809h1.688c2.46 0 2.25-1.933 1.792-3.198l-2.812-8.05z" fill="url(#paint1_linear_115:6)"/><path d="M25.87 3.69H15.29l-2.53 7.347.878 2.566 4.5 12.689h-.071l.562 1.617 2.144 6.186 2.039 5.87h10.37l2.424-6.995L25.87 3.69z" fill="url(#paint2_linear_115:6)"/><defs><linearGradient id="paint0_linear_115:6" x1="27.549" y1="-1.018" x2="40.957" y2="38.906" gradientUnits="userSpaceOnUse"><stop stop-color="#00B9F2"/><stop offset="1" stop-color="#034EA2"/></linearGradient><linearGradient id="paint1_linear_115:6" x1="19.922" y1="41.759" x2="30.805" y2="5.382" gradientUnits="userSpaceOnUse"><stop stop-color="#96D5D2"/><stop offset="1" stop-color="#00AAAD"/></linearGradient><linearGradient id="paint2_linear_115:6" x1="30.749" y1="39.364" x2="17.461" y2="2.928" gradientUnits="userSpaceOnUse"><stop offset=".005" stop-color="#00B5AD"/><stop offset="1" stop-color="#0066B3"/></linearGradient></defs></svg>