<svg width="239" height="80" fill="none" xmlns="http://www.w3.org/2000/svg"><path fill-rule="evenodd" clip-rule="evenodd" d="M139.122 61.3l17.996-51.599c1.265-3.655 1.758-8.084-2.882-8.084h-3.374V0h18.207v1.617h-2.109c-3.937 0-5.694 5.413-6.678 8.365L135.818 80H115.15L90.334 9.069c-1.054-2.953-2.882-7.452-6.327-7.452h-2.109V0h46.398v1.617h-3.375c-4.429 0-4.569 3.093-3.796 5.553 0 .07.07.211.07.211l4.64 14.06 13.287 39.86z" fill="#fff"/><path fill-rule="evenodd" clip-rule="evenodd" d="M87.452 52.583h18.207l-9.138-25.729h-.141l-8.928 25.73zm19.192 3.234H86.327l-5.413 15.536c-.843 2.46-2.25 6.96 3.304 6.96h3.375v1.617H69.385v-1.617h2.11c3.514 0 5.272-4.429 6.326-7.311L100.036 7.31h21.159l21.301 63.902c.844 2.812 3.796 7.1 7.1 7.1h2.109v1.617h-46.397v-1.617h3.374c4.921 0 4.499-3.867 3.585-6.397l-5.623-16.099z" fill="#fff"/><path d="M121.125 7.381h-21.16l-5.062 14.693 1.758 5.132 8.998 25.378h-.141l1.125 3.233 4.288 12.373 4.078 11.74h20.738l4.851-13.99-19.473-58.559zM44.429 46.397l-6.186-10.826 1.054-.562 5.694 9.912 5.624-9.912 1.055.562-6.187 10.826H44.43zm-19.895 0l-6.186-10.826 1.055-.562 5.694 9.912 5.624-9.912 1.054.562-6.186 10.826h-1.055zm44.007.563l-5.623-9.913-5.695 9.913-1.054-.633L62.355 35.5h1.055l6.186 10.826-1.055.633zm-67.487 0L0 46.327 6.186 35.5h1.055l6.186 10.826-1.054.633-5.624-9.913-5.695 9.913zm166.89-.211h-1.266v-3.515l.633-.633h5.272a3.15 3.15 0 003.164-3.163 3.15 3.15 0 00-3.164-3.164h-5.834V35.01h5.834a4.41 4.41 0 014.429 4.429 4.41 4.41 0 01-4.429 4.428h-4.639v2.883zm22.776-3.304l-.632-1.055.492-.351c.773-.492 1.687-1.477 1.687-2.672a3.15 3.15 0 00-3.164-3.163h-5.624v-1.266h5.624a4.41 4.41 0 014.429 4.43c0 1.686-1.195 3.022-2.32 3.725l-.492.352z" fill="#fff"/><path d="M191.139 41.71l-1.099.627 2.616 4.578 1.099-.628-2.616-4.578zm10.829-6.701h-1.265v11.74h1.265v-11.74zm17.645 11.74L209.49 35.852l.844-.843 10.123 10.826-.844.914zm13.568-11.74h-1.265v11.74h1.265v-11.74z" fill="#fff"/><path d="M238.383 35.009h-11.74v1.265h11.74V35.01zm-53.638 0h-1.266v11.74h1.266v-11.74zm25.589 11.74h-1.266V36.134l1.266-1.125v11.74zm10.474-1.266l-1.195 1.266v-11.74h1.195v10.474z" fill="#fff"/><path d="M191.494 41.968h-8.015v1.266h8.015v-1.266zm-124.288.774h-8.788v1.195h8.788v-1.195zm-56.521 0H2.812v1.195h7.873v-1.195z" fill="#fff"/></svg>