<svg width="239" height="80" fill="none" xmlns="http://www.w3.org/2000/svg"><path fill-rule="evenodd" clip-rule="evenodd" d="M139.121 61.3l17.996-51.599c1.266-3.655 1.758-8.084-2.882-8.084h-3.374V0h18.207v1.617h-2.109c-3.937 0-5.694 5.413-6.678 8.365L135.817 80h-20.668L90.333 9.069c-1.054-2.953-2.882-7.452-6.326-7.452h-2.11V0h46.398v1.617h-3.375c-4.428 0-4.569 3.093-3.796 5.553 0 .07.071.211.071.211l4.639 14.06 13.287 39.86z" fill="url(#paint0_linear_111:8)"/><path fill-rule="evenodd" clip-rule="evenodd" d="M87.45 52.583h18.208l-9.139-25.729h-.14l-8.928 25.73zm19.192 3.234H86.326l-5.413 15.536c-.844 2.46-2.25 6.96 3.304 6.96h3.374v1.617H69.384v-1.617h2.109c3.515 0 5.272-4.429 6.327-7.311L100.034 7.31h21.16l21.301 63.902c.843 2.812 3.796 7.1 7.1 7.1h2.109v1.617h-46.397v-1.617h3.374c4.921 0 4.499-3.867 3.585-6.397l-5.624-16.099z" fill="url(#paint1_linear_111:8)"/><path d="M121.124 7.381h-21.16l-5.061 14.693 1.757 5.132 8.999 25.378h-.141l1.125 3.233 4.288 12.373 4.077 11.74h20.738l4.851-13.99-19.473-58.559z" fill="url(#paint2_linear_111:8)"/><path d="M44.43 46.397l-6.187-10.826 1.054-.562 5.695 9.912 5.623-9.912 1.055.562-6.186 10.826h-1.055zm-19.896 0l-6.186-10.826 1.054-.562 5.694 9.912 5.624-9.912 1.055.562-6.186 10.826h-1.055zm44.008.563l-5.624-9.913-5.694 9.913-1.055-.633L62.355 35.5h1.055l6.186 10.826-1.054.633zm-67.488 0L0 46.327 6.186 35.5h1.055l6.186 10.826-1.054.633-5.624-9.913-5.695 9.913zm166.889-.211h-1.265v-3.515l.633-.633h5.272a3.15 3.15 0 003.164-3.163 3.15 3.15 0 00-3.164-3.164h-5.835V35.01h5.835a4.41 4.41 0 014.429 4.429 4.41 4.41 0 01-4.429 4.428h-4.64v2.883zm22.778-3.304l-.633-1.055.492-.351c.773-.492 1.687-1.477 1.687-2.672a3.15 3.15 0 00-3.163-3.163h-5.624v-1.266h5.624a4.41 4.41 0 014.428 4.43c0 1.686-1.195 3.022-2.319 3.725l-.492.352z" fill="#000"/><path d="M191.138 41.71l-1.099.627 2.616 4.577 1.099-.627-2.616-4.578zm10.83-6.701h-1.265v11.74h1.265v-11.74zm17.645 11.74L209.49 35.852l.844-.843 10.123 10.826-.844.914zm13.568-11.74h-1.265v11.74h1.265v-11.74z" fill="#000"/><path d="M238.383 35.009h-11.739v1.265h11.739V35.01zm-53.638 0h-1.265v11.74h1.265v-11.74zm25.589 11.74h-1.265V36.134l1.265-1.125v11.74zm10.475-1.266l-1.195 1.266v-11.74h1.195v10.474z" fill="#000"/><path d="M191.494 41.968h-8.014v1.266h8.014v-1.266zm-124.289.774h-8.787v1.195h8.787v-1.195zm-56.52 0H2.812v1.195h7.873v-1.195z" fill="#000"/><defs><linearGradient id="paint0_linear_111:8" x1="124.481" y1="-2.036" x2="151.297" y2="77.811" gradientUnits="userSpaceOnUse"><stop stop-color="#00B9F2"/><stop offset="1" stop-color="#034EA2"/></linearGradient><linearGradient id="paint1_linear_111:8" x1="109.227" y1="83.517" x2="130.993" y2="10.765" gradientUnits="userSpaceOnUse"><stop stop-color="#96D5D2"/><stop offset="1" stop-color="#00AAAD"/></linearGradient><linearGradient id="paint2_linear_111:8" x1="130.882" y1="78.728" x2="104.307" y2="5.855" gradientUnits="userSpaceOnUse"><stop offset=".005" stop-color="#00B5AD"/><stop offset="1" stop-color="#0066B3"/></linearGradient></defs></svg>